HIERARCHY
ROOT Hips
{
	OFFSET -0.001795 -0.223333 0.028219
	CHANNELS 6 Xposition Yposition Zposition Zrotation Yrotation Xrotation 
	JOINT LeftUpLeg
	{
		OFFSET 0.069520 -0.091406 -0.006815
		CHANNELS 3 Zrotation Yrotation Xrotation
		JOINT LeftLeg
		{
			OFFSET 0.034277 -0.375199 -0.004496
			CHANNELS 3 Zrotation Yrotation Xrotation
			JOINT LeftFoot
			{
				OFFSET -0.013596 -0.397961 -0.043693
				CHANNELS 3 Zrotation Yrotation Xrotation
				JOINT LeftToe
				{
					OFFSET 0.026358 -0.055791 0.119288
					CHANNELS 3 Zrotation Yrotation Xrotation
					End Site
					{
						OFFSET 0.000000 0.000000 0.000000
					}
				}
			}
		}
	}
	JOINT RightUpLeg
	{
		OFFSET -0.067670 -0.090522 -0.004320
		CHANNELS 3 Zrotation Yrotation Xrotation
		JOINT RightLeg
		{
			OFFSET -0.038290 -0.382569 -0.008850
			CHANNELS 3 Zrotation Yrotation Xrotation
			JOINT RightFoot
			{
				OFFSET 0.015774 -0.398415 -0.042312
				CHANNELS 3 Zrotation Yrotation Xrotation
				JOINT RightToe
				{
					OFFSET -0.025372 -0.048144 0.123348
					CHANNELS 3 Zrotation Yrotation Xrotation
					End Site
					{
						OFFSET 0.000000 0.000000 0.000000
					}
				}
			}
		}
	}
	JOINT Spine
	{
		OFFSET -0.002533 0.108963 -0.026696
		CHANNELS 3 Zrotation Yrotation Xrotation
		JOINT Spine1
		{
			OFFSET 0.005487 0.135180 0.001092
			CHANNELS 3 Zrotation Yrotation Xrotation
			JOINT Spine2
			{
				OFFSET 0.001457 0.052922 0.025425
				CHANNELS 3 Zrotation Yrotation Xrotation
				JOINT Neck
				{
					OFFSET -0.002778 0.213870 -0.042857
					CHANNELS 3 Zrotation Yrotation Xrotation
					JOINT Head
					{
						OFFSET 0.005152 0.064970 0.051349
						CHANNELS 3 Zrotation Yrotation Xrotation
						End Site
						{
							OFFSET 0.000000 0.000000 0.000000
						}
					}
				}
				JOINT LeftShoulder
				{
					OFFSET 0.078845 0.121749 -0.034090
					CHANNELS 3 Zrotation Yrotation Xrotation
					JOINT LeftArm
					{
						OFFSET 0.090977 0.030469 -0.008868
						CHANNELS 3 Zrotation Yrotation Xrotation
						JOINT LeftForeArm
						{
							OFFSET 0.259612 -0.012772 -0.027456
							CHANNELS 3 Zrotation Yrotation Xrotation
							JOINT LeftHand
							{
								OFFSET 0.249234 0.008986 -0.001171
								CHANNELS 3 Zrotation Yrotation Xrotation
								End Site
								{
									OFFSET 0.000000 0.000000 0.000000
								}
							}
						}
					}
				}
				JOINT RightShoulder
				{
					OFFSET -0.081759 0.118833 -0.038615
					CHANNELS 3 Zrotation Yrotation Xrotation
					JOINT RightArm
					{
						OFFSET -0.096012 0.032551 -0.009143
						CHANNELS 3 Zrotation Yrotation Xrotation
						JOINT RightForeArm
						{
							OFFSET -0.253742 -0.013329 -0.021401
							CHANNELS 3 Zrotation Yrotation Xrotation
							JOINT RightHand
							{
								OFFSET -0.255298 0.007772 -0.005559
								CHANNELS 3 Zrotation Yrotation Xrotation
								End Site
								{
									OFFSET 0.000000 0.000000 0.000000
								}
							}
						}
					}
				}
			}
		}
	}
}
MOTION
Frames: 6
Frame Time: 0.050000
0.000000 0.879861 0.000000 -2.349393 4.912471 -11.443323 4.699448 -0.563954 -10.908826 -4.059894 0.137353 20.882744 7.770699 11.680977 -15.819328 0.000000 0.000000 0.000000 -5.322016 0.020449 -2.249097 5.012617 -1.627207 39.590173 -5.737073 -11.830381 -16.041800 0.000000 0.000000 0.000000 -3.211920 -0.263597 9.660562 4.721467 -0.699397 -21.294645 3.527645 9.565116 28.821736 3.422411 0.936298 -18.418396 0.000000 0.000000 0.000000 -23.304190 9.481439 -10.760205 -47.675980 13.053509 -11.965153 -17.522664 -36.173963 6.428339 0.000000 0.000000 0.000000 12.942054 1.721354 2.266869 50.442871 21.290073 1.312684 10.519835 62.249161 13.657501 0.000000 0.000000 0.000000 
0.000000 0.879861 0.000000 -2.349393 4.912471 -11.443323 4.699448 -0.563954 -10.908826 -4.059894 0.137353 20.882744 7.770699 11.680977 -15.819328 0.000000 0.000000 0.000000 -5.322016 0.020449 -2.249097 5.012617 -1.627207 39.590173 -5.737073 -11.830381 -16.041800 0.000000 0.000000 0.000000 -3.211920 -0.263597 9.660562 4.721467 -0.699397 -21.294645 3.527645 9.565116 28.821736 3.422411 0.936298 -18.418396 0.000000 0.000000 0.000000 -23.304190 9.481439 -10.760205 -47.675980 13.053509 -11.965153 -17.522664 -36.173963 6.428339 0.000000 0.000000 0.000000 12.942054 1.721354 2.266869 50.442871 21.290073 1.312684 10.519835 62.249161 13.657501 0.000000 0.000000 0.000000 
0.000000 0.945989 0.000000 -0.919979 9.245374 2.614032 -3.194573 -0.276105 -3.276364 6.696624 -0.873654 2.209106 1.520365 6.117657 6.410765 0.000000 0.000000 0.000000 -6.093968 0.112254 -1.391802 3.519840 -0.480679 8.189968 -5.097123 -13.130658 0.515999 0.000000 0.000000 0.000000 -4.149057 0.003144 5.374452 4.639591 -0.559326 -20.420182 0.825741 1.871739 28.982731 3.394792 0.977549 -27.116097 0.000000 0.000000 0.000000 -20.471466 2.990873 -5.054095 -58.226257 -0.629347 -8.944950 -9.330802 -21.764290 2.597010 0.000000 0.000000 0.000000 14.097830 5.214625 3.511815 62.957716 20.724474 2.916342 7.190655 25.145238 2.956851 0.000000 0.000000 0.000000 
0.000000 0.942753 0.000000 -1.088495 8.967966 2.286069 -3.770591 -1.561127 -12.874058 5.745680 -1.254547 7.319512 0.037504 3.998290 7.530247 0.000000 0.000000 0.000000 -5.053791 0.010827 0.477520 2.512672 -0.281341 10.413012 -5.466080 -14.094552 1.205182 0.000000 0.000000 0.000000 -3.987429 -0.015376 5.852234 3.843313 -0.270603 -21.937851 1.779193 3.342502 29.805944 3.672384 1.120973 -27.747121 0.000000 0.000000 0.000000 -21.666862 4.751368 -6.762691 -57.079982 5.431915 -11.453405 -5.952459 -22.048656 1.902842 0.000000 0.000000 0.000000 11.650567 5.090091 3.405042 59.466642 28.830256 7.062015 20.238211 27.725107 6.782226 0.000000 0.000000 0.000000 
0.000000 0.937885 0.000000 -0.897589 6.843403 1.631882 -3.481619 -1.697401 -14.049179 5.358972 -1.215385 7.623962 2.038221 6.976994 6.536622 0.000000 0.000000 0.000000 -5.141132 -0.001876 0.975018 2.522453 -0.246227 14.038041 -4.168372 -10.728419 0.154349 0.000000 0.000000 0.000000 -4.001698 -0.018953 6.385163 3.256736 -0.197427 -20.909709 3.223899 6.390160 28.708840 4.028446 0.897078 -24.649569 0.000000 0.000000 0.000000 -23.615301 3.615007 -7.158104 -53.042725 10.277957 -12.257532 -7.823670 -26.262092 2.549673 0.000000 0.000000 0.000000 15.036778 5.178520 4.147662 55.510268 27.635590 5.254785 15.417200 32.745761 6.785721 0.000000 0.000000 0.000000 
0.000000 0.936402 0.000000 -1.102314 9.908071 3.977049 2.646057 -0.190160 -1.349721 -1.402747 0.193143 -3.731137 4.303884 8.019494 -1.701738 0.000000 0.000000 0.000000 -3.540923 0.375845 -4.710664 2.287548 -0.247924 9.090413 -5.647574 -14.478750 1.392378 0.000000 0.000000 0.000000 -3.506486 -0.042269 6.549251 4.825496 -0.545275 -21.095635 0.728804 0.872691 28.579331 2.511974 1.127048 -24.467135 0.000000 0.000000 0.000000 -23.221633 3.333047 -5.693384 -54.085899 3.263405 -9.825473 -13.654454 -25.622255 4.054883 0.000000 0.000000 0.000000 18.327185 5.085037 3.736690 57.551933 15.654054 -0.811878 7.297193 28.339801 3.455321 0.000000 0.000000 0.000000 
